<?xml version="1.0" encoding="utf-8"?>
<!-- Generator: Adobe Illustrator 16.0.0, SVG Export Plug-In . SVG Version: 6.00 Build 0)  -->
<!DOCTYPE svg PUBLIC "-//W3C//DTD SVG 1.1//EN" "http://www.w3.org/Graphics/SVG/1.1/DTD/svg11.dtd">
<svg version="1.1" id="图层_1" xmlns="http://www.w3.org/2000/svg" xmlns:xlink="http://www.w3.org/1999/xlink" x="0px" y="0px"
	 width="859.457px" height="226.489px" viewBox="0 0 859.457 226.489" enable-background="new 0 0 859.457 226.489"
	 xml:space="preserve">
<g id="title">
	<path id="title-m" fill="#0E0B0B" d="M742.075,53.822c-3.754-1.399-5.387,2.439-7.398,4.721
		c-12.447,14.093-25.064,28.025-37.061,42.565c-4.809,5.833-7.531,6.799-12.773,0.331C672.971,86.782,660.3,72.897,647.865,58.79
		c-2.175-2.467-3.968-6.769-8.032-4.798c-3.899,1.893-2.537,6.289-2.543,9.733c-0.072,31.313-0.063,62.623-0.034,93.935
		c0.021,21.149-1.678,17.842,16.805,18.476c6.895,0.238,8.923-2.543,8.772-9.723c-0.345-16.386-0.108-32.79-0.108-48.056
		c7.133,7.006,14.376,13.717,21.185,20.905c7.456,7.877,7.089,7.857,14.545-0.096c6.967-7.433,14.407-14.345,21.289-21.137
		c-0.017-0.185,0.06,0.372,0.06,0.927c0.004,13.141-0.094,26.281,0.021,39.418c0.183,20.307-2.616,17.085,16.404,17.768
		c6.899,0.253,8.736-2.405,8.681-9.632c-0.289-34.666-0.104-69.334-0.172-104.002C744.733,59.37,746.02,55.293,742.075,53.822z"/>
	<path id="title-r" fill="#0E0B0B" d="M480.794,135.169c-2.375-4.731-2.218-7.052,2.065-10.554
		c12.794-10.475,17.015-28.723,11.532-46c-5.042-15.892-17.025-24.947-33.586-25.101c-14.337-0.132-28.688,0.27-43.012-0.159
		c-6.595-0.198-8.437,2.682-8.333,9.376c0.272,17.315,0.089,34.636,0.089,51.959c0,13.966-0.068,27.93,0.013,41.899
		c0.136,22.478-2.654,19.033,18.871,19.469c5.198,0.106,6.69-2.646,6.618-7.705c-0.113-8.374-0.03-16.755-0.03-25.134
		c0.004-11.185,0.004-10.995,10.076-10.959c3.52,0.011,5.529,1.098,7.012,4.668c2.842,6.842,6.118,13.47,9.209,20.19
		c9.125,19.839,9.125,19.839,29.247,18.878c6.439-0.307,7.805-2.478,5.019-8.769C490.817,156.454,486.066,145.655,480.794,135.169z
		 M459.641,106.704c-3.054,0.185-6.124,0.034-9.19,0.034c-15.446,0-15.095-0.009-15.589-16.902
		c-0.215-7.409,1.404-10.799,8.592-9.438c2.229,0.421,4.585,0.066,6.884,0.068c3.064,0.004,6.131-0.129,9.188,0.03
		c8.143,0.419,11.902,4.577,11.849,12.911C471.32,101.63,467.313,106.247,459.641,106.704z"/>
	<path id="title-e" fill="#0E0B0B" d="M839.865,150.717c-9.729,0.442-19.479,0.117-29.222,0.117c-15.947,0-15.667,0-15.771-17.43
		c-0.029-5.653,1.851-6.367,6.188-6.166c7.167,0.339,14.354,0.189,21.532,0.075c15.665-0.258,15.422,3.887,15.403-17.396
		c-0.005-5.857-2.344-7.909-7.522-7.676c-6.653,0.298-13.331,0.068-19.994,0.068c-16.279,0-16.12,0.006-15.552-17.643
		c0.141-4.453,1.399-5.69,5.344-5.602c11.021,0.247,22.047,0.215,33.069,0.053c16.249-0.24,15.022,3.441,15.207-17.421
		c0.054-6.036-1.85-8.407-7.63-8.326c-21.02,0.289-42.048,0.342-63.063-0.017c-6.512-0.115-8.507,2.473-8.392,9.285
		c0.293,17.332,0.1,34.674,0.096,52.011c0,17.058,0.338,34.128-0.143,51.171c-0.238,8.262,2.452,10.559,9.793,10.348
		c18.193-0.519,36.401-0.072,54.601-0.199c15.035-0.109,14.553,3.271,14.782-16.354
		C848.674,152.443,846.043,150.436,839.865,150.717z"/>
	<path id="title-a" fill="#0E0B0B" d="M572.139,62.134c-1.607-3.581-2.373-8.619-7.339-8.468c-4.459,0.138-5.229,4.71-6.758,8.119
		c-10.215,22.753-20.396,45.527-30.59,68.288c-5.602,12.505-11.152,25.037-16.832,37.492c-1.956,4.309-2.156,7.454,3.16,8.424
		c16.532,3.009,20.76,0.655,27.84-15.649c0.215-0.507,0.546-0.972,0.672-1.506c1.223-5.065,4.034-6.822,8.934-6.492
		c7.403,0.499,14.946,0.939,22.253-0.077c8.919-1.237,13.695,2.202,16.239,11.138c2.628,9.252,7.451,14.002,16.149,12.002
		c2.113,0,2.882,0,3.647,0c13.105,0,13.349-0.139,7.608-12.986C602.135,128.887,587.185,95.635,572.139,62.134z M555.411,129.404
		c3.173-8,5.678-13.896,9.916-20.297c3.001,6.934,5.78,12.297,8.781,20.297H555.411z"/>
	<path id="title-f" fill="#0E0B0B" d="M387.938,53.334c-20.745,0.417-41.505,0.364-62.252,0.023
		c-6.327-0.102-8.674,2.105-8.544,9.108c0.314,17.323,0.102,34.651,0.102,51.979c-0.004,14.25-0.058,28.505,0.01,42.758
		c0.102,21.762-2.235,18.365,17.875,18.895c5.761,0.146,7.771-2.31,7.651-8.355c-0.221-11.452,0.132-22.918-0.157-34.366
		c-0.113-4.578,0.804-6.42,5.376-6.16c7.409,0.425,14.853,0.114,22.283,0.114c16.273,0,16.707-0.632,15.403-18.242
		c-0.364-4.914-2.231-6.958-6.742-6.828c-6.914,0.201-13.833,0.051-20.75,0.051c-16.275,0-16.124,0.006-15.579-17.583
		c0.136-4.381,1.271-5.754,5.28-5.665c11.269,0.259,22.546,0.189,33.815,0.066c15.354-0.172,14.295,2.896,14.542-16.481
		C396.344,55.959,394.581,53.201,387.938,53.334z"/>
</g>
<path id="up-frame" fill="#040302" d="M262.011,14.563c-10.312,0-19.286,5.841-23.938,13.841h-64.771
	c-3.667-7-11.502-12.782-20.58-12.782s-16.915,5.782-20.582,12.782H66.248c-4.652-8-13.627-13.841-23.94-13.841
	c-15.088,0-27.509,12.083-27.509,26.936c0,9.589,5.59,18.042,12.59,22.805v46.101h16V68.397c14-0.681,24.606-10.993,26.071-23.993
	h61.388c2.509,9,9.542,14.948,18.542,16.076v22.924h-31.884c-1.042-4-4.551-6.301-8.731-6.301c-5,0-9.053,4.131-9.053,9.052
	c0,4.923,4.053,8.965,9.053,8.965c4.249,0,7.804-2.716,8.781-6.716h31.835v13.437c-1,0.849-3.077,2.747-3.077,4.964
	c0,3.004,2.575,5.44,5.63,5.44c3.052,0,5.604-2.437,5.604-5.44c0-2.199-1.157-4.081-3.157-4.939V88.404h26.709
	c0.518,6,5.691,10.888,12.007,10.888c6.661,0,12.059-5.305,12.059-11.86s-5.398-12.147-12.059-12.147
	c-5.432,0-10.022,4.12-11.531,8.12h-27.185V60.598c10-0.691,17.588-7.193,20.208-16.193h60.267
	c1.517,14,13.175,23.965,27.234,23.965c0.069,0,0.291,0.061,0.291,0.06v41.976h16V63.211c7-4.897,11.047-12.819,11.047-21.712
	C289.435,26.646,277.102,14.563,262.011,14.563z M42.309,56.211c-8.232,0-14.904-6.568-14.904-14.67
	c0-8.103,6.671-14.669,14.904-14.669c8.23,0,14.902,6.566,14.902,14.669C57.211,49.643,50.54,56.211,42.309,56.211z M193.105,82.354
	c2.854,0,5.167,2.277,5.167,5.086c0,2.81-2.313,5.087-5.167,5.087c-2.855,0-5.17-2.277-5.17-5.087
	C187.935,84.632,190.25,82.354,193.105,82.354z M152.721,50.467c-6.867,0-12.433-5.479-12.433-12.238s5.566-12.238,12.433-12.238
	s12.434,5.479,12.434,12.238S159.588,50.467,152.721,50.467z M262.011,56.211c-8.229,0-14.902-6.568-14.902-14.67
	c0-8.103,6.673-14.669,14.902-14.669c8.232,0,14.905,6.566,14.905,14.669C276.916,49.643,270.243,56.211,262.011,56.211z"/>
<g id="up-balls">
	<ellipse id="up-ball-1" fill="#00FFFF" cx="42.309" cy="41.542" rx="14.904" ry="14.669"/>
	<ellipse id="up-ball-3" fill="#00FFFF" cx="262.011" cy="41.542" rx="14.902" ry="14.669"/>
	<ellipse id="up-ball-2" fill="#00FFFF" cx="152.721" cy="38.229" rx="12.433" ry="12.238"/>
	<ellipse id="up-ball-4" fill="#00FFFF" cx="193.105" cy="87.441" rx="5.17" ry="5.086"/>
</g>
<path id="down-frame" fill="#040302" d="M278.388,167.345v-47.94h-16v42.72c0,0-0.222,0.214-0.291,0.214
	c-14.038,0-25.684,10.066-27.227,24.066h-60.292c-2.584-9-10.19-15.501-19.19-16.403v-23.597h31.991c1.041,4,4.55,6.675,8.73,6.675
	c4.999,0,9.053-3.948,9.053-8.872s-4.055-8.745-9.053-8.745c-4.249,0-7.803,2.942-8.781,6.942h-31.941v-13.699
	c2-0.85,3.131-2.75,3.131-4.965c0-3.006-2.548-5.445-5.604-5.445c-3.053,0-5.643,2.439-5.643,5.445c0,2.197,1.117,4.078,3.117,4.939
	v13.725h-26.603c-0.517-7-5.69-11.023-12.008-11.023c-6.662,0-12.058,5.25-12.058,11.808s5.396,11.749,12.058,11.749
	c5.432,0,10.023-3.533,11.532-8.533h27.079v23.602c-9,0.924-16.946,7.398-19.525,16.398H69.451
	c-1.49-13-12.063-23.568-26.063-24.248v-42.752h-16v46.848c-7,4.763-12.59,13.178-12.59,22.772
	c0,14.855,12.327,27.135,27.415,27.135c10.337,0,19.426-5.755,24.068-13.755h65.833c3.655,7,11.507,12.845,20.608,12.845
	c9.1,0,16.952-5.845,20.606-12.845h64.712c4.642,8,13.635,13.755,23.971,13.755c15.091,0,27.424-12.163,27.424-27.019
	C289.435,180.244,285.388,172.242,278.388,167.345z M111.777,148.196c-2.854,0-5.168-2.277-5.168-5.089
	c0-2.811,2.314-5.088,5.168-5.088c2.854,0,5.169,2.277,5.169,5.088C116.946,145.919,114.63,148.196,111.777,148.196z
	 M42.309,203.697c-8.232,0-14.904-6.569-14.904-14.673c0-8.106,6.671-14.677,14.904-14.677c8.23,0,14.902,6.57,14.902,14.677
	C57.211,197.128,50.54,203.697,42.309,203.697z M152.721,204.58c-6.867,0-12.433-5.481-12.433-12.243s5.566-12.243,12.433-12.243
	s12.434,5.481,12.434,12.243S159.588,204.58,152.721,204.58z M262.011,203.697c-8.229,0-14.902-6.569-14.902-14.673
	c0-8.106,6.673-14.677,14.902-14.677c8.232,0,14.905,6.57,14.905,14.677C276.916,197.128,270.243,203.697,262.011,203.697z"/>
<g id="down-balls">
	<ellipse id="down-ball-1" fill="#C1272D" cx="42.309" cy="189.022" rx="14.904" ry="14.675"/>
	<ellipse id="down-ball-3" fill="#C1272D" cx="262.011" cy="189.022" rx="14.902" ry="14.675"/>
	<ellipse id="down-ball-2" fill="#C1272D" cx="152.721" cy="192.337" rx="12.433" ry="12.243"/>
	<ellipse id="down-ball-4" fill="#C1272D" cx="111.777" cy="143.108" rx="5.168" ry="5.088"/>
</g>
</svg>
