<?xml version="1.0" encoding="utf-8"?>
<!-- Generator: Adobe Illustrator 16.0.0, SVG Export Plug-In . SVG Version: 6.00 Build 0)  -->
<!DOCTYPE svg PUBLIC "-//W3C//DTD SVG 1.1//EN" "http://www.w3.org/Graphics/SVG/1.1/DTD/svg11.dtd">
<svg version="1.1" id="图层_1" xmlns="http://www.w3.org/2000/svg" xmlns:xlink="http://www.w3.org/1999/xlink" x="0px" y="0px"
	 width="497px" height="498px" viewBox="0 0 497 498" enable-background="new 0 0 497 498" xml:space="preserve">
<path fill="#040302" d="M444.115,5.81c-18.449,0-34.513,10.19-42.7,25.19H286.917c-6.424-14-20.427-23.06-36.678-23.06
	c-16.253,0-30.257,9.06-36.682,23.06H97.071C88.883,16,72.844,5.81,54.394,5.81C27.63,5.81,6.006,27.124,6.006,53.478
	c0,17.121,8.994,32.08,22.994,40.5V176h28v-74.928C81,99.804,100.066,82,102.576,59h108.808C215.774,74,229,84.983,245,87.022V129
	h-57.229c-1.847-7-8.071-11.826-15.486-11.826c-8.869,0-16.058,7.006-16.058,15.738c0,8.735,7.189,15.954,16.058,15.954
	c7.536,0,13.84-4.866,15.574-11.866H245v23.419c-3,1.506-5.795,4.874-5.795,8.806c0,5.33,4.398,9.653,9.815,9.653
	c5.414,0,9.76-4.324,9.76-9.653c0-3.9-2.781-7.238-5.781-8.764V137h47.569c0.918,10,10.094,19.109,21.296,19.109
	c11.815,0,21.39-9.52,21.39-21.152c0-11.631-9.575-20.959-21.39-20.959c-9.636,0-17.776,6.002-20.452,15.002H253V87.25
	C270,86.067,284.49,74,289.09,59h106.82c2.604,24,23.328,42.364,48.33,42.364c0.205,0-0.24-0.23,0.76-0.233V176h28V91.798
	c12-8.693,19.605-22.642,19.605-38.371C492.605,27.074,470.882,5.81,444.115,5.81z M54.396,79.457
	c-14.603,0-26.436-11.654-26.436-26.029c0-14.375,11.833-26.029,26.436-26.029c14.599,0,26.433,11.654,26.433,26.029
	C80.829,67.803,68.995,79.457,54.396,79.457z M321.868,125.844c5.063,0,9.166,4.042,9.166,9.026c0,4.984-4.103,9.025-9.166,9.025
	c-5.065,0-9.171-4.041-9.171-9.025C312.697,129.885,316.803,125.844,321.868,125.844z M250.236,69.265
	c-12.18,0-22.052-9.72-22.052-21.714c0-11.995,9.872-21.716,22.052-21.716c12.181,0,22.056,9.721,22.056,21.716
	C272.292,59.544,262.417,69.265,250.236,69.265z M444.09,79.457c-14.599,0-26.433-11.654-26.433-26.029
	c0-14.375,11.834-26.029,26.433-26.029c14.603,0,26.436,11.654,26.436,26.029C470.525,67.803,458.692,79.457,444.09,79.457z"/>
<path fill="#040302" d="M473,406.242V322h-28v74.91c-1-0.003-0.555-0.254-0.76-0.254c-25.002,0-45.725,19.344-48.329,42.344H289.089
	C284.609,424,271,412.578,254,410.894V369h57.71c1.847,7,8.072,11.85,15.487,11.85c8.866,0,16.058-6.996,16.058-15.73
	s-7.192-15.972-16.058-15.972c-7.536,0-13.84,5.853-15.575,11.853H254v-23.376c4-1.505,6.038-4.875,6.038-8.806
	c0-5.331-4.279-9.657-9.699-9.657c-5.414,0-9.938,4.326-9.938,9.657c0,3.897,2.6,7.234,5.6,8.763V361h-47.088
	c-0.917-10-10.095-19.09-21.299-19.09c-11.815,0-21.387,9.532-21.387,21.162c0,11.632,9.572,20.943,21.387,20.943
	c9.636,0,17.779-6.016,20.456-15.016H246v41.864C230,412.425,215.896,424,211.384,439H102.576C100.064,416,81,398.236,57,396.969
	V322H29v82.063c-14,8.42-22.994,23.429-22.994,40.554c0,26.35,21.661,47.594,48.424,47.594c18.45,0,34.452-10.21,42.64-25.21
	h116.489c6.425,14,20.429,23.06,36.681,23.06c16.25,0,30.252-9.06,36.677-23.06h114.5c8.188,15,24.226,25.21,42.674,25.21
	c26.767,0,48.516-21.306,48.516-47.655C492.605,428.824,485,414.936,473,406.242z M177.613,372.198c-5.063,0-9.166-4.04-9.166-9.026
	c0-4.984,4.103-9.024,9.166-9.024s9.168,4.04,9.168,9.024C186.781,368.158,182.675,372.198,177.613,372.198z M54.396,470.643
	c-14.603,0-26.436-11.654-26.436-26.026c0-14.38,11.833-26.032,26.436-26.032c14.599,0,26.433,11.652,26.433,26.032
	C80.829,458.988,68.995,470.643,54.396,470.643z M250.236,472.208c-12.18,0-22.052-9.723-22.052-21.717s9.872-21.716,22.052-21.716
	c12.181,0,22.056,9.722,22.056,21.716S262.417,472.208,250.236,472.208z M444.09,470.643c-14.599,0-26.433-11.654-26.433-26.026
	c0-14.38,11.834-26.032,26.433-26.032c14.603,0,26.436,11.652,26.436,26.032C470.525,458.988,458.692,470.643,444.09,470.643z"/>
<g>
	<path fill="none" d="M226.12,257h15.79c-2.533-5-4.881-11.288-7.415-17.141C230.915,245.264,228.801,252,226.12,257z"/>
	<path fill="none" d="M145.14,216.728c-2.582-0.134-5.172-0.021-7.759-0.024c-1.941-0.003-3.929,0.298-5.813-0.059
		c-6.069-1.148-7.437,1.714-7.255,7.97c0.416,14.268,0.12,14.276,13.165,14.276c2.591,0,5.184,0.126,7.763-0.029
		c6.479-0.387,9.862-4.287,9.908-11.231C155.194,220.593,152.016,217.081,145.14,216.728z"/>
	<path fill="#0E0B0B" d="M383.764,194.2c-3.168-1.181-4.547,2.061-6.249,3.987c-10.512,11.902-21.167,23.667-31.297,35.949
		c-4.06,4.925-6.36,5.741-10.788,0.278c-10.025-12.375-20.728-24.104-31.229-36.018c-1.834-2.083-3.351-5.716-6.782-4.052
		c-3.294,1.599-2.143,5.311-2.148,8.22c-0.063,26.445-0.054,52.889-0.028,79.335c0.017,17.857-1.419,15.068,14.19,15.602
		c5.822,0.201,7.538-2.148,7.409-8.211c-0.29-13.84-0.091-27.695-0.091-40.586c6.024,5.917,12.142,11.586,17.892,17.659
		c6.295,6.652,5.984,6.635,12.282-0.084c5.885-6.279,12.168-12.115,17.979-17.849c-0.011-0.157,0.051,0.313,0.051,0.782
		c0.006,11.097-0.077,22.196,0.02,33.292c0.154,17.148-2.211,14.426,13.855,15.004c5.824,0.209,7.376-2.031,7.329-8.137
		c-0.242-29.275-0.088-58.553-0.145-87.833C386.01,198.886,387.095,195.444,383.764,194.2z"/>
	<path fill="#0E0B0B" d="M163.104,262.9c-2.006-3.993-1.872-5.955,1.744-8.913c10.805-8.846,14.37-24.258,9.74-38.848
		c-4.26-13.422-14.379-21.068-28.365-21.199c-12.107-0.111-24.227,0.228-36.326-0.134c-5.568-0.167-7.124,2.264-7.036,7.919
		c0.228,14.623,0.074,29.252,0.074,43.881c0,11.794-0.057,23.589,0.012,35.388c0.114,18.982-2.24,16.072,15.938,16.441
		c4.392,0.092,5.651-2.234,5.591-6.506c-0.097-7.074-0.026-14.15-0.026-21.23c0.003-9.442,0.003-9.283,8.509-9.251
		c2.972,0.008,4.67,0.927,5.921,3.943c2.399,5.777,5.166,11.373,7.776,17.049c7.705,16.758,7.705,16.758,24.7,15.943
		c5.44-0.26,6.591-2.096,4.24-7.406C171.57,280.879,167.555,271.756,163.104,262.9z M145.24,238.863
		c-2.579,0.155-5.172,0.029-7.763,0.029c-13.045,0-12.749-0.009-13.165-14.276c-0.182-6.256,1.186-9.119,7.255-7.97
		c1.884,0.356,3.873,0.056,5.813,0.059c2.587,0.003,5.178-0.11,7.759,0.024c6.875,0.354,10.054,3.866,10.008,10.904
		C155.103,234.576,151.72,238.476,145.24,238.863z"/>
	<path fill="#0E0B0B" d="M466.352,276.031c-8.216,0.375-16.451,0.1-24.678,0.1c-13.47,0-13.231,0-13.318-14.721
		c-0.026-4.774,1.561-5.378,5.225-5.206c6.053,0.287,12.123,0.158,18.184,0.061c13.23-0.213,13.026,3.286,13.009-14.689
		c-0.003-4.946-1.978-6.68-6.352-6.483c-5.619,0.251-11.259,0.059-16.887,0.059c-13.747,0-13.612,0.006-13.134-14.899
		c0.12-3.762,1.183-4.807,4.514-4.733c9.307,0.209,18.619,0.184,27.929,0.045c13.724-0.201,12.688,2.907,12.844-14.712
		c0.045-5.096-1.563-7.099-6.446-7.032c-17.75,0.246-35.509,0.29-53.258-0.014c-5.497-0.097-7.184,2.089-7.088,7.841
		c0.247,14.638,0.085,29.284,0.082,43.927c0,14.406,0.285,28.82-0.122,43.215c-0.199,6.977,2.072,8.916,8.272,8.74
		c15.362-0.438,30.741-0.061,46.112-0.17c12.698-0.094,12.291,2.764,12.484-13.811C473.791,277.492,471.569,275.795,466.352,276.031
		z"/>
	<path fill="#0E0B0B" d="M240.248,201.221c-1.356-3.023-2.006-7.28-6.197-7.152c-3.768,0.117-4.417,3.978-5.708,6.857
		c-8.625,19.214-17.226,38.448-25.834,57.671c-4.73,10.559-9.418,21.145-14.214,31.666c-1.655,3.635-1.824,6.293,2.667,7.111
		c13.963,2.543,17.534,0.555,23.512-13.215c0.183-0.43,0.462-0.824,0.567-1.271c1.032-4.283,3.409-5.764,7.546-5.484
		c6.252,0.424,12.621,0.793,18.793-0.064c7.532-1.047,11.566,1.92,13.715,9.467c2.22,7.814,6.292,13.193,13.638,10.193
		c1.784,0,2.433,0,3.081,0c11.068,0,11.272-0.178,6.426-11.025C265.581,257.655,252.955,229.514,240.248,201.221z M226.12,257
		c2.682-5,4.795-11.736,8.375-17.141c2.533,5.853,4.881,12.141,7.415,17.141H226.12z"/>
	<path fill="#0E0B0B" d="M84.683,193.79c-17.519,0.35-35.052,0.306-52.575,0.02c-5.343-0.087-7.327,1.779-7.218,7.692
		c0.268,14.628,0.088,29.264,0.088,43.898c-0.002,12.034-0.048,24.072,0.009,36.107c0.086,18.381-1.887,15.512,15.097,15.957
		c4.865,0.127,6.561-1.949,6.461-7.053c-0.186-9.672,0.11-19.357-0.132-29.023c-0.097-3.867,0.678-5.425,4.54-5.205
		c6.258,0.359,12.544,0.097,18.819,0.097c13.741,0,14.108-0.531,13.008-15.406c-0.308-4.15-1.883-5.877-5.693-5.766
		c-5.839,0.169-11.683,0.042-17.525,0.042c-13.744,0-13.616,0.004-13.156-14.849c0.114-3.7,1.074-4.861,4.459-4.786
		c9.518,0.219,19.041,0.161,28.559,0.055c12.966-0.146,12.07,2.447,12.282-13.918C91.782,196.005,90.294,193.676,84.683,193.79z"/>
</g>
</svg>
