<?xml version="1.0" encoding="utf-8"?>
<!-- Generator: Adobe Illustrator 16.0.0, SVG Export Plug-In . SVG Version: 6.00 Build 0)  -->
<!DOCTYPE svg PUBLIC "-//W3C//DTD SVG 1.1//EN" "http://www.w3.org/Graphics/SVG/1.1/DTD/svg11.dtd">
<svg version="1.1" id="frame-logo" xmlns="http://www.w3.org/2000/svg" xmlns:xlink="http://www.w3.org/1999/xlink" x="0px" y="0px"
	 width="488.321px" height="489.051px" viewBox="0 0 488.321 489.051" enable-background="new 0 0 488.321 489.051"
	 xml:space="preserve">
<g id="title">
	<path id="title-m" fill="#0E0B0B" d="M372.059,195.133c-3.021-1.125-4.335,1.964-5.956,3.801
		c-10.02,11.345-20.177,22.56-29.833,34.266c-3.87,4.695-6.063,5.473-10.282,0.266c-9.558-11.798-19.759-22.976-29.768-34.332
		c-1.75-1.986-3.194-5.449-6.465-3.862c-3.14,1.523-2.043,5.062-2.048,7.835c-0.06,25.207-0.051,50.412-0.027,75.618
		c0.016,17.026-1.352,14.364,13.527,14.874c5.549,0.191,7.184-2.047,7.062-7.827c-0.277-13.19-0.087-26.396-0.087-38.686
		c5.742,5.641,11.573,11.042,17.055,16.83c6.001,6.341,5.705,6.324,11.707-0.078c5.608-5.983,11.599-11.547,17.138-17.015
		c-0.012-0.149,0.048,0.3,0.048,0.746c0.005,10.578-0.073,21.157,0.019,31.731c0.146,16.347-2.107,13.753,13.206,14.304
		c5.553,0.202,7.033-1.937,6.986-7.754c-0.231-27.906-0.083-55.814-0.138-83.724C374.2,199.6,375.235,196.318,372.059,195.133z"/>
	<path id="title-r" fill="#0E0B0B" d="M161.727,260.618c-1.912-3.809-1.785-5.677,1.662-8.496
		c10.3-8.432,13.698-23.122,9.284-37.029c-4.06-12.794-13.706-20.082-27.037-20.207c-11.542-0.106-23.093,0.217-34.627-0.128
		c-5.308-0.159-6.791,2.158-6.706,7.548c0.218,13.938,0.071,27.883,0.071,41.827c0,11.242-0.055,22.484,0.01,33.729
		c0.109,18.095-2.135,15.322,15.192,15.673c4.186,0.086,5.387-2.13,5.329-6.202c-0.092-6.741-0.024-13.488-0.024-20.234
		c0.002-9.002,0.002-8.85,8.11-8.82c2.833,0.008,4.452,0.883,5.645,3.757c2.287,5.508,4.924,10.843,7.412,16.254
		c7.346,15.971,7.346,15.971,23.545,15.196c5.185-0.246,6.283-1.995,4.041-7.059C169.796,277.754,165.97,269.061,161.727,260.618z
		 M144.698,237.705c-2.458,0.147-4.93,0.027-7.398,0.027c-12.435,0-12.152-0.008-12.549-13.607c-0.174-5.964,1.13-8.692,6.916-7.598
		c1.795,0.34,3.691,0.053,5.542,0.056c2.466,0.003,4.935-0.104,7.396,0.023c6.554,0.337,9.583,3.685,9.539,10.394
		C154.101,233.619,150.875,237.336,144.698,237.705z"/>
	<path id="title-e" fill="#0E0B0B" d="M450.781,273.135c-7.831,0.355-15.681,0.095-23.522,0.095c-12.839,0-12.612,0-12.695-14.032
		c-0.024-4.55,1.488-5.125,4.981-4.963c5.77,0.272,11.555,0.153,17.332,0.061c12.61-0.207,12.416,3.129,12.399-14.004
		c-0.003-4.714-1.886-6.366-6.055-6.179c-5.356,0.239-10.732,0.056-16.096,0.056c-13.104,0-12.977,0.005-12.519-14.202
		c0.113-3.586,1.127-4.582,4.302-4.511c8.871,0.199,17.747,0.174,26.621,0.043c13.081-0.192,12.093,2.771,12.242-14.023
		c0.043-4.858-1.489-6.767-6.144-6.703c-16.92,0.233-33.848,0.276-50.766-0.014c-5.241-0.092-6.849,1.991-6.756,7.474
		c0.236,13.953,0.081,27.913,0.078,41.87c0,13.731,0.271,27.473-0.116,41.192c-0.19,6.651,1.975,8.5,7.885,8.33
		c14.645-0.418,29.303-0.059,43.954-0.161c12.104-0.088,11.715,2.634,11.899-13.164
		C457.873,274.525,455.754,272.909,450.781,273.135z"/>
	<path id="title-a" fill="#0E0B0B" d="M235.259,201.826c-1.293-2.883-1.911-6.94-5.907-6.818c-3.59,0.111-4.209,3.792-5.44,6.537
		c-8.222,18.315-16.42,36.648-24.625,54.972c-4.509,10.066-8.978,20.154-13.549,30.183c-1.577,3.467-1.737,6,2.543,6.78
		c13.309,2.422,16.713,0.526,22.411-12.598c0.174-0.408,0.439-0.783,0.541-1.212c0.983-4.079,3.248-5.492,7.191-5.227
		c5.959,0.402,12.031,0.756,17.914-0.062c7.18-0.997,11.024,2.023,13.073,9.217c2.116,7.447,5.998,11.912,12.999,9.912
		c1.701,0,2.32,0,2.937,0c10.551,0,10.746-0.363,6.125-10.705C259.407,255.812,247.372,228.794,235.259,201.826z M221.793,255.511
		c2.555-6,4.571-11.187,7.984-16.339c2.414,5.58,4.652,10.339,7.067,16.339H221.793z"/>
	<path id="title-f" fill="#0E0B0B" d="M86.977,194.742c-16.699,0.334-33.412,0.292-50.114,0.019
		c-5.093-0.083-6.983,1.695-6.879,7.332c0.255,13.944,0.084,27.895,0.084,41.844c-0.003,11.472-0.046,22.945,0.008,34.419
		c0.082,17.52-1.799,14.785,14.39,15.211c4.637,0.119,6.253-1.858,6.158-6.726c-0.177-9.22,0.106-18.449-0.125-27.665
		c-0.092-3.686,0.647-5.169,4.327-4.959c5.965,0.342,11.957,0.092,17.938,0.092c13.098,0,13.448-0.508,12.399-14.686
		c-0.293-3.956-1.795-5.602-5.427-5.496c-5.565,0.162-11.137,0.041-16.705,0.041c-13.101,0-12.978,0.004-12.541-14.154
		c0.108-3.527,1.023-4.634,4.25-4.562c9.072,0.209,18.15,0.153,27.222,0.053c12.358-0.139,11.506,2.332,11.707-13.268
		C93.743,196.854,92.325,194.634,86.977,194.742z"/>
</g>
<path id="up-frame" fill="#040302" d="M436.465,4.09c-18.077,0-33.81,9.864-41.964,24.421H280.955
	c-6.428-13.255-20.164-22.414-36.077-22.414s-29.651,9.159-36.08,22.414H93.286C85.131,13.954,69.397,4.09,51.318,4.09
	c-26.45,0-47.895,21.115-47.895,47.161c0,16.815,8.947,31.567,22.401,39.918v81.342h28V98.349
	c23.506-1.193,42.523-19.074,45.09-41.838h107.614c4.399,14.799,17.388,25.976,33.296,27.954v41.046h-56.686
	c-1.826-7-7.978-11.473-15.307-11.473c-8.766,0-15.871,7.032-15.871,15.663c0,8.633,7.105,15.653,15.871,15.653
	c7.448,0,13.68-4.843,15.393-11.843h56.6v23.483c-3,1.488-5.79,4.817-5.79,8.703c0,5.268,4.316,9.541,9.671,9.541
	c5.35,0,9.739-4.272,9.739-9.541c0-3.854-2.62-7.153-5.62-8.661v-23.524h46.795c0.908,11,9.978,19.055,21.049,19.055
	c11.676,0,21.14-9.325,21.14-20.821c0-11.495-9.464-20.887-21.14-20.887c-9.523,0-17.569,6.653-20.215,14.653h-47.629v-40.84
	c16.859-1.212,30.807-12.713,35.397-28.16h105.65c2.658,23.568,22.946,41.902,47.593,41.902c0.12,0,0.239-0.008,0.359-0.009v74.106
	h28V89.252c11.848-8.586,19.54-22.408,19.54-38.001C484.365,25.205,462.918,4.09,436.465,4.09z M51.321,76.977
	c-14.431,0-26.127-11.519-26.127-25.726S36.89,25.526,51.321,25.526c14.429,0,26.125,11.518,26.125,25.725
	S65.75,76.977,51.321,76.977z M315.67,122.822c5.004,0,9.059,3.995,9.059,8.921c0,4.925-4.055,8.92-9.059,8.92
	c-5.006,0-9.063-3.995-9.063-8.92C306.607,126.816,310.665,122.822,315.67,122.822z M244.875,66.903
	c-12.038,0-21.795-9.607-21.795-21.46c0-11.855,9.757-21.462,21.795-21.462c12.039,0,21.797,9.607,21.797,21.462
	C266.672,57.296,256.915,66.903,244.875,66.903z M436.465,76.977c-14.427,0-26.124-11.519-26.124-25.726
	s11.697-25.725,26.124-25.725c14.432,0,26.128,11.518,26.128,25.725S450.897,76.977,436.465,76.977z"/>
<g id="up-balls">
	<ellipse id="up-ball-1" fill="#00FFFF" cx="51.321" cy="51.251" rx="26.127" ry="25.725"/>
	<path id="up-ball-3" fill="#00FFFF" d="M436.465,25.526c-14.427,0-26.124,11.518-26.124,25.725s11.697,25.726,26.124,25.726
		c14.432,0,26.128-11.519,26.128-25.726S450.897,25.526,436.465,25.526z"/>
	<ellipse id="up-ball-2" fill="#00FFFF" cx="244.875" cy="45.442" rx="21.795" ry="21.461"/>
	<ellipse id="up-ball-4" fill="#00FFFF" cx="315.67" cy="131.742" rx="9.063" ry="8.92"/>
</g>
<path id="down-frame" fill="#040302" d="M464.825,399.868v-83.357h-28v74.206c-0.12-0.001-0.239-0.009-0.359-0.009
	c-24.61,0-44.875,18.279-47.58,41.803H283.193c-4.53-15.091-17.994-26.404-34.368-27.985v-41.015h56.808
	c1.825,7,7.977,11.525,15.305,11.525c8.763,0,15.871-7.008,15.871-15.641c0-8.631-7.108-15.692-15.871-15.692
	c-7.447,0-13.679,4.808-15.393,11.808h-56.72v-23.38c4-1.489,5.852-4.819,5.852-8.703c0-5.27-4.285-9.545-9.643-9.545
	c-5.352,0-9.783,4.275-9.783,9.545c0,3.852,2.574,7.149,5.574,8.66v23.423H194.15c-0.906-11-9.976-19.006-21.05-19.006
	c-11.678,0-21.139,9.362-21.139,20.857s9.461,20.854,21.139,20.854c9.522,0,17.57-6.705,20.216-14.705h47.509v41.022
	c-16.327,1.619-29.745,12.919-34.267,27.978H98.902c-2.612-22.72-21.606-40.547-45.077-41.738v-74.262h-28v81.441
	c-13.455,8.35-22.401,23.102-22.401,39.921c0,26.042,21.445,47.159,47.895,47.159c18.122,0,33.888-9.91,42.026-24.521h115.407
	c6.408,13.309,20.173,22.517,36.126,22.517s29.717-9.208,36.123-22.517h113.442c8.138,14.611,23.903,24.521,42.022,24.521
	c26.453,0,47.899-21.117,47.899-47.159C484.365,422.276,476.672,408.454,464.825,399.868z M173.1,366.301
	c-5.003,0-9.06-3.993-9.06-8.921s4.056-8.92,9.06-8.92c5.002,0,9.061,3.992,9.061,8.92S178.103,366.301,173.1,366.301z
	 M51.321,463.595c-14.431,0-26.127-11.516-26.127-25.722c0-14.211,11.696-25.729,26.127-25.729
	c14.429,0,26.125,11.518,26.125,25.729C77.445,452.079,65.75,463.595,51.321,463.595z M244.875,465.144
	c-12.038,0-21.795-9.61-21.795-21.463c0-11.854,9.757-21.464,21.795-21.464c12.039,0,21.797,9.609,21.797,21.464
	C266.672,455.533,256.915,465.144,244.875,465.144z M436.465,463.595c-14.427,0-26.124-11.516-26.124-25.722
	c0-14.211,11.697-25.729,26.124-25.729c14.432,0,26.128,11.518,26.128,25.729C462.593,452.079,450.897,463.595,436.465,463.595z"/>
<g id="down-balls">
	<path id="down-ball-1" fill="#C1272D" d="M51.321,412.145c-14.431,0-26.127,11.518-26.127,25.729
		c0,14.206,11.696,25.722,26.127,25.722c14.429,0,26.125-11.516,26.125-25.722C77.445,423.662,65.75,412.145,51.321,412.145z"/>
	<path id="down-ball-3" fill="#C1272D" d="M436.465,412.145c-14.427,0-26.124,11.518-26.124,25.729
		c0,14.206,11.697,25.722,26.124,25.722c14.432,0,26.128-11.516,26.128-25.722C462.593,423.662,450.897,412.145,436.465,412.145z"/>
	<ellipse id="down-ball-2" fill="#C1272D" cx="244.875" cy="443.68" rx="21.795" ry="21.463"/>
	<ellipse id="down-ball-4" fill="#C1272D" cx="173.1" cy="357.38" rx="9.06" ry="8.92"/>
</g>
</svg>
