<?xml version="1.0" encoding="utf-8"?>
<!-- Generator: Adobe Illustrator 16.0.0, SVG Export Plug-In . SVG Version: 6.00 Build 0)  -->
<!DOCTYPE svg PUBLIC "-//W3C//DTD SVG 1.1//EN" "http://www.w3.org/Graphics/SVG/1.1/DTD/svg11.dtd">
<svg version="1.1" id="图层_4" xmlns="http://www.w3.org/2000/svg" xmlns:xlink="http://www.w3.org/1999/xlink" x="0px" y="0px"
	 width="200.685px" height="149.9px" viewBox="0 0 200.685 149.9" enable-background="new 0 0 200.685 149.9" xml:space="preserve">
<g>
	<ellipse fill="#040302" cx="151.944" cy="60.202" rx="3.578" ry="3.522"/>
	<ellipse fill="#040302" cx="49.475" cy="92.878" rx="3.577" ry="3.522"/>
	<path fill="#040302" d="M121.486,58.333c0.378,4,4.165,7.714,8.788,7.714c4.875,0,8.826-4.014,8.826-8.813
		s-3.951-8.869-8.826-8.869c-3.976,0-7.335,2.969-8.439,5.969h-20.284V37.45c0,0.027-0.618,0.059-1.017,0.059
		c-0.729,0-0.983-0.062-1.983-0.151v16.976h-23.61c-0.762-3-3.33-4.702-6.39-4.702c-3.66,0-6.626,2.98-6.626,6.583
		c0,3.605,2.967,6.799,6.626,6.799c3.109,0,5.711-2.681,6.427-4.681h23.573v9.322c-1,0.622-2.388,2.011-2.388,3.633
		c0,2.2,1.816,3.983,4.051,3.983c2.234,0,3.875-1.784,3.875-3.983c0-1.609-0.538-2.987-2.538-3.616v-9.339H121.486z M130.275,53.387
		c2.089,0,3.782,1.668,3.782,3.724c0,2.057-1.692,3.725-3.782,3.725c-2.09,0-3.784-1.668-3.784-3.725
		C126.491,55.056,128.185,53.387,130.275,53.387z"/>
	<path fill="#040302" d="M9.551,40.217v34.116h11V43.142c10-0.526,18.197-7.809,19.233-17.809h44.91
		c1.812,6,7.228,11.035,13.878,11.878c0.705,0.09,1.417,0.224,2.146,0.224c0.398,0,0.789-0.141,1.18-0.168
		c7.086-0.49,12.942-4.934,14.841-11.934h44.09c1.075,10,9.357,17.717,19.673,17.717c0.085,0,0.047,0.135,0.047,0.134v31.149h12
		v-35.02c5-3.588,8.134-9.323,8.134-15.808c0-10.875-8.942-19.608-19.987-19.608c-7.612,0-14.218,4.436-17.596,10.436h-47.264
		c-2.652-6-8.416-9.515-15.118-9.515c-6.704,0-12.469,3.515-15.122,9.515H37.514c-3.379-6-9.996-10.436-17.609-10.436
		C8.861,3.897,0,12.672,0,23.547C0,30.607,3.551,36.742,9.551,40.217z M180.708,12.766c6.025,0,10.909,4.809,10.909,10.74
		s-4.884,10.741-10.909,10.741c-6.024,0-10.907-4.809-10.907-10.741S174.685,12.766,180.708,12.766z M100.717,12.12
		c5.026,0,9.101,4.011,9.101,8.96c0,4.949-4.075,8.96-9.101,8.96c-5.026,0-9.1-4.011-9.1-8.96
		C91.618,16.131,95.691,12.12,100.717,12.12z M19.905,12.766c6.024,0,10.908,4.809,10.908,10.74S25.93,34.247,19.905,34.247
		c-6.025,0-10.908-4.809-10.908-10.741S13.88,12.766,19.905,12.766z"/>
	<path fill="#040302" d="M192.551,114.619V79.333h-12v31c-0.004,0-0.011,0-0.047,0c-10.316,0-18.598,8-19.673,18H116.74
		c-1.85-6-7.189-11.125-14.189-11.82v-17.18h23.533c0.762,3,3.331,4.835,6.391,4.835c3.658,0,6.626-2.914,6.626-6.518
		c0-3.604-2.968-6.399-6.626-6.399c-3.11,0-5.711,2.082-6.427,5.082h-23.497V86.279c1-0.622,2.351-2.012,2.351-3.634
		c0-2.2-1.836-3.985-4.073-3.985c-2.234,0-3.845,1.785-3.845,3.985c0,1.608,0.567,2.984,2.567,3.615v10.073H79.539
		c-0.378-5-4.165-8.081-8.789-8.081c-4.875,0-8.826,3.83-8.826,8.63c0,4.799,3.95,8.645,8.826,8.645c3.976,0,7.336-2.194,8.44-6.194
		h20.36v17.17c-7,0.644-12.994,5.83-14.856,11.83H39.784c-1.036-10-9.233-17.017-19.233-17.542V79.333h-11v34.382
		C3.551,117.19,0,123.366,0,130.428C0,141.301,8.908,149.9,19.951,149.9c7.613,0,14.184-3.567,17.562-10.567h48.084
		c2.653,6,8.417,9.514,15.121,9.514c6.702,0,12.465-3.514,15.118-9.514h47.265c3.378,7,9.995,10.567,17.607,10.567
		c11.045,0,19.976-8.708,19.976-19.581C200.685,123.835,197.551,118.207,192.551,114.619z M70.75,100.544
		c-2.089,0-3.782-1.667-3.782-3.724c0-2.057,1.693-3.725,3.782-3.725s3.783,1.667,3.783,3.725
		C74.533,98.878,72.839,100.544,70.75,100.544z M19.905,141.166c-6.025,0-10.908-4.808-10.908-10.738
		c0-5.934,4.883-10.742,10.908-10.742c6.024,0,10.908,4.809,10.908,10.742C30.813,136.358,25.93,141.166,19.905,141.166z
		 M100.717,141.813c-5.026,0-9.1-4.013-9.1-8.96c0-4.95,4.073-8.963,9.1-8.963c5.026,0,9.101,4.013,9.101,8.963
		C109.818,137.8,105.743,141.813,100.717,141.813z M180.708,141.166c-6.024,0-10.907-4.808-10.907-10.738
		c0-5.934,4.883-10.742,10.907-10.742c6.025,0,10.909,4.809,10.909,10.742C191.617,136.358,186.733,141.166,180.708,141.166z"/>
</g>
</svg>
