<?xml version="1.0" encoding="utf-8"?>
<!-- Generator: Adobe Illustrator 16.0.0, SVG Export Plug-In . SVG Version: 6.00 Build 0)  -->
<!DOCTYPE svg PUBLIC "-//W3C//DTD SVG 1.1//EN" "http://www.w3.org/Graphics/SVG/1.1/DTD/svg11.dtd">
<svg version="1.1" id="图层_1" xmlns="http://www.w3.org/2000/svg" xmlns:xlink="http://www.w3.org/1999/xlink" x="0px" y="0px"
	 width="754.463px" height="164.992px" viewBox="0 0 754.463 164.992" enable-background="new 0 0 754.463 164.992"
	 xml:space="preserve">
<g>
	<ellipse fill="#040302" cx="160.384" cy="68.522" rx="3.578" ry="3.522"/>
	<ellipse fill="#040302" cx="57.916" cy="101.198" rx="3.576" ry="3.522"/>
	<path fill="#040302" d="M129.926,66.653c0.378,4,4.165,7.714,8.788,7.714c4.875,0,8.826-4.014,8.826-8.813
		s-3.951-8.869-8.826-8.869c-3.977,0-7.335,2.969-8.439,5.969h-20.284V45.77c0,0.027-0.617,0.059-1.017,0.059
		c-0.729,0-0.983-0.062-1.983-0.15v16.976H83.381c-0.762-3-3.33-4.702-6.391-4.702c-3.659,0-6.626,2.98-6.626,6.583
		c0,3.605,2.968,6.8,6.626,6.8c3.109,0,5.712-2.682,6.428-4.682h23.572v9.322c-1,0.622-2.388,2.011-2.388,3.633
		c0,2.2,1.816,3.983,4.051,3.983s3.875-1.784,3.875-3.983c0-1.608-0.538-2.987-2.538-3.616v-9.339H129.926z M138.715,61.708
		c2.089,0,3.782,1.668,3.782,3.724c0,2.057-1.692,3.725-3.782,3.725s-3.784-1.668-3.784-3.725
		C134.931,63.376,136.625,61.708,138.715,61.708z"/>
	<path fill="#040302" d="M17.991,48.537v34.116h11v-31.19c10-0.526,18.197-7.81,19.233-17.81h44.91
		c1.812,6,7.228,11.035,13.878,11.878c0.705,0.09,1.417,0.225,2.146,0.225c0.398,0,0.789-0.142,1.181-0.168
		c7.086-0.49,12.941-4.935,14.841-11.935h44.09c1.075,10,9.357,17.717,19.673,17.717c0.085,0,0.047,0.136,0.047,0.135v31.148h12
		v-35.02c5-3.588,8.135-9.323,8.135-15.809c0-10.875-8.942-19.607-19.987-19.607c-7.612,0-14.218,4.436-17.596,10.436h-47.265
		c-2.651-6-8.416-9.515-15.118-9.515c-6.703,0-12.469,3.515-15.121,9.515H45.955c-3.38-6-9.996-10.436-17.609-10.436
		c-11.044,0-19.905,8.774-19.905,19.649C8.44,38.927,11.991,45.062,17.991,48.537z M189.148,21.086
		c6.025,0,10.909,4.809,10.909,10.739c0,5.932-4.884,10.741-10.909,10.741c-6.023,0-10.907-4.809-10.907-10.741
		C178.241,25.894,183.125,21.086,189.148,21.086z M109.157,20.44c5.026,0,9.102,4.011,9.102,8.96s-4.075,8.96-9.102,8.96
		c-5.025,0-9.1-4.011-9.1-8.96C100.058,24.451,104.131,20.44,109.157,20.44z M28.345,21.086c6.024,0,10.908,4.809,10.908,10.739
		c0,5.932-4.883,10.741-10.908,10.741s-10.908-4.809-10.908-10.741C17.437,25.894,22.32,21.086,28.345,21.086z"/>
	<path fill="#040302" d="M200.991,122.939V87.653h-12v31c-0.004,0-0.011,0-0.047,0c-10.315,0-18.598,8-19.673,18H125.18
		c-1.85-6-7.189-11.125-14.189-11.819v-17.181h23.533c0.763,3,3.331,4.835,6.392,4.835c3.657,0,6.626-2.914,6.626-6.518
		c0-3.604-2.969-6.399-6.626-6.399c-3.11,0-5.711,2.082-6.428,5.082h-23.497V94.599c1-0.622,2.352-2.012,2.352-3.634
		c0-2.2-1.836-3.985-4.073-3.985c-2.233,0-3.845,1.785-3.845,3.985c0,1.607,0.566,2.983,2.566,3.614v10.073H87.979
		c-0.378-5-4.165-8.081-8.789-8.081c-4.875,0-8.826,3.83-8.826,8.63s3.95,8.646,8.826,8.646c3.977,0,7.336-2.194,8.44-6.194h20.359
		v17.17c-7,0.645-12.993,5.83-14.855,11.83h-44.91c-1.036-10-9.233-17.017-19.233-17.542V87.653h-11v34.382
		c-6,3.476-9.551,9.651-9.551,16.713c0,10.873,8.908,19.473,19.951,19.473c7.613,0,14.184-3.567,17.563-10.567h48.084
		c2.652,6,8.417,9.515,15.12,9.515c6.702,0,12.466-3.515,15.118-9.515h47.266c3.378,7,9.995,10.567,17.606,10.567
		c11.045,0,19.977-8.708,19.977-19.581C209.125,132.155,205.991,126.527,200.991,122.939z M79.19,108.864
		c-2.089,0-3.782-1.667-3.782-3.724s1.693-3.725,3.782-3.725s3.783,1.667,3.783,3.725S81.279,108.864,79.19,108.864z
		 M28.345,149.486c-6.025,0-10.908-4.808-10.908-10.738c0-5.934,4.883-10.741,10.908-10.741c6.024,0,10.908,4.809,10.908,10.741
		C39.253,144.678,34.371,149.486,28.345,149.486z M109.157,150.133c-5.025,0-9.1-4.014-9.1-8.96c0-4.95,4.073-8.963,9.1-8.963
		s9.102,4.013,9.102,8.963C118.258,146.12,114.183,150.133,109.157,150.133z M189.148,149.486c-6.023,0-10.907-4.808-10.907-10.738
		c0-5.934,4.884-10.741,10.907-10.741c6.025,0,10.909,4.809,10.909,10.741C200.057,144.678,195.173,149.486,189.148,149.486z"/>
</g>
<path fill="#0E0B0B" d="M639.271,22.434c-3.729-1.389-5.351,2.424-7.351,4.69c-12.367,14.001-24.9,27.841-36.816,42.288
	c-4.777,5.793-7.482,6.752-12.692,0.326c-11.793-14.558-24.383-28.354-36.734-42.368c-2.159-2.45-3.942-6.724-7.979-4.767
	c-3.875,1.881-2.521,6.247-2.527,9.669c-0.073,31.109-0.063,62.215-0.034,93.325c0.021,21.01-1.669,17.724,16.694,18.354
	c6.849,0.233,8.865-2.526,8.715-9.657c-0.342-16.282-0.107-32.581-0.107-47.745c7.087,6.96,14.283,13.628,21.049,20.772
	c7.404,7.825,7.039,7.806,14.447-0.098c6.922-7.387,14.313-14.252,21.148-20.998c-0.015-0.184,0.061,0.369,0.061,0.92
	c0.005,13.055-0.092,26.112,0.022,39.162c0.181,20.171-2.602,16.97,16.298,17.653c6.852,0.247,8.679-2.392,8.621-9.57
	c-0.285-34.441-0.104-68.882-0.17-103.325C641.91,27.947,643.189,23.897,639.271,22.434"/>
<path fill="#0E0B0B" d="M379.698,103.25c-2.36-4.697-2.203-7.005,2.051-10.485c12.712-10.404,16.905-28.534,11.458-45.697
	c-5.011-15.79-16.915-24.784-33.367-24.938c-14.243-0.131-28.5,0.268-42.732-0.157c-6.551-0.196-8.38,2.663-8.277,9.315
	c0.269,17.202,0.087,34.411,0.087,51.619c0,13.874-0.067,27.749,0.013,41.626c0.134,22.331-2.634,18.91,18.749,19.343
	c5.165,0.107,6.646-2.63,6.576-7.651c-0.114-8.324-0.03-16.646-0.03-24.975c0.003-11.107,0.003-10.92,10.01-10.885
	c3.496,0.01,5.493,1.091,6.965,4.638c2.822,6.796,6.077,13.38,9.148,20.056c9.064,19.713,9.064,19.713,29.056,18.756
	c6.398-0.304,7.753-2.464,4.988-8.712C389.657,124.399,384.934,113.669,379.698,103.25 M358.684,74.973
	c-3.033,0.181-6.083,0.034-9.132,0.034c-15.345,0-14.997-0.01-15.486-16.794c-0.215-7.359,1.394-10.727,8.534-9.375
	c2.216,0.418,4.555,0.064,6.839,0.068c3.044,0.004,6.091-0.129,9.127,0.029c8.088,0.416,11.826,4.547,11.772,12.827
	C370.285,69.93,366.306,74.518,358.684,74.973"/>
<path fill="#0E0B0B" d="M736.419,118.696c-9.664,0.439-19.351,0.118-29.028,0.118c-15.846,0-15.564,0-15.667-17.317
	c-0.03-5.617,1.836-6.328,6.147-6.125c7.12,0.337,14.26,0.186,21.39,0.072c15.564-0.251,15.322,3.865,15.301-17.281
	c-0.002-5.817-2.326-7.857-7.47-7.625c-6.611,0.295-13.245,0.069-19.866,0.069c-16.17,0-16.013,0.007-15.448-17.526
	c0.141-4.425,1.392-5.655,5.31-5.568c10.946,0.246,21.902,0.216,32.853,0.053c16.144-0.235,14.925,3.419,15.108-17.307
	c0.054-5.995-1.837-8.35-7.583-8.271c-20.879,0.289-41.771,0.341-62.649-0.016c-6.467-0.114-8.451,2.457-8.337,9.223
	c0.291,17.219,0.101,34.447,0.097,51.672c0,16.946,0.336,33.903-0.145,50.835c-0.233,8.209,2.438,10.49,9.732,10.282
	c18.071-0.515,36.162-0.073,54.242-0.203c14.938-0.106,14.459,3.253,14.687-16.243C745.172,120.413,742.557,118.417,736.419,118.696
	"/>
<path fill="#0E0B0B" d="M470.444,30.694c-1.595-3.557-2.358-8.565-7.289-8.414c-4.432,0.138-5.196,4.68-6.716,8.066
	c-10.146,22.604-20.263,45.228-30.389,67.842c-5.565,12.42-11.079,24.872-16.721,37.25c-1.947,4.276-2.146,7.404,3.138,8.366
	c16.425,2.988,20.626,0.65,27.658-15.548c0.214-0.504,0.543-0.968,0.667-1.494c1.213-5.038,4.009-6.78,8.876-6.451
	c7.354,0.496,14.847,0.932,22.107-0.076c8.859-1.232,13.606,2.482,16.133,11.363c2.612,9.19,7.401,15.233,16.044,12.215
	c2.099,0,2.862,0,3.623,0c13.02,0,13.262-0.436,7.559-13.193C500.245,97.305,485.393,63.975,470.444,30.694 M453.825,96.891
	c3.154-7.042,5.643-13.806,9.854-20.163c2.979,6.885,5.74,13.269,8.721,20.163H453.825z"/>
<path fill="#0E0B0B" d="M287.449,21.952c-20.609,0.412-41.234,0.36-61.846,0.024c-6.286-0.102-8.619,2.091-8.491,9.049
	c0.315,17.208,0.104,34.423,0.104,51.639c-0.003,14.156-0.057,28.319,0.01,42.473c0.101,21.625-2.219,18.249,17.76,18.775
	c5.722,0.146,7.716-2.296,7.599-8.299c-0.217-11.38,0.131-22.771-0.154-34.143c-0.113-4.549,0.798-6.381,5.34-6.122
	c7.361,0.423,14.756,0.114,22.137,0.114c16.163,0,16.596-0.625,15.302-18.123c-0.362-4.882-2.215-6.914-6.697-6.783
	c-6.869,0.199-13.743,0.05-20.616,0.05c-16.167,0-16.015,0.005-15.476-17.468c0.135-4.353,1.264-5.719,5.246-5.629
	c11.196,0.257,22.399,0.189,33.595,0.064c15.252-0.171,14.199,2.878,14.448-16.373C295.799,24.558,294.049,21.818,287.449,21.952"/>
</svg>
